# xmcd CD database file
#
# Track frame offsets:
#	150
#	14135
#	32252
#	49590
#	64905
#	78397
#	94167
#	109372
#	124145
#	142455
#
# Disc length: 2148 seconds
#
# Revision: 4
# Processed by: cddbd v1.5.2PL0 Copyright (c) Steve Scherf et al.
# Submitted via: CDex 1.79
#
DISCID=8f08620a
DTITLE=Confederate Railroad - Unleashed
DYEAR=2001
DGENRE=Country
TTITLE0=Still One Outlaw Left
TTITLE1=What Brothers Do
TTITLE2=She Treats Her Body Like A Temple
TTITLE3=I'm Diggin' It
TTITLE4=White Trash With Money
TTITLE5=Wasted Time
TTITLE6=The 'R' Word
TTITLE7=Borrowed Time
TTITLE8=Between The Rainbows And The Rain
TTITLE9=Thick As Thieves
EXTD=YEAR: 2001
EXTT0=
EXTT1=
EXTT2=
EXTT3=
EXTT4=
EXTT5=
EXTT6=
EXTT7=
EXTT8=
EXTT9=
PLAYORDER=
